<?xml version="1.0" encoding="utf-8"?>
<!-- Generator: Adobe Illustrator 24.0.1, SVG Export Plug-In . SVG Version: 6.00 Build 0)  -->
<svg version="1.1" id="Layer_1" xmlns="http://www.w3.org/2000/svg" xmlns:xlink="http://www.w3.org/1999/xlink" x="0px" y="0px"
	 viewBox="0 0 3840 1440" style="enable-background:new 0 0 3840 1440;" xml:space="preserve">
<style type="text/css">
	.st0{fill:url(#SVGID_1_);}
	.st1{fill:#E74037;}
	.st2{fill:#C7283D;}
	.st3{fill:#7C0031;}
</style>
<linearGradient id="SVGID_1_" gradientUnits="userSpaceOnUse" x1="1920" y1="-9.094947e-13" x2="1920" y2="1440">
	<stop  offset="1.733953e-07" style="stop-color:#00385C"/>
	<stop  offset="1" style="stop-color:#005282"/>
</linearGradient>
<rect class="st0" width="3840" height="1440"/>
<path class="st1" d="M2910,903c0,0-141.1-32-199.2-74c0,0-1,10-27,0s-90.2-57-98.5-71c0,0,6.7,25.5-139.5-87.5c0,0-27,29-46.7,14
	c0,0-18.7,19-30.1,18c0,0-77.5,53.5-135,73.5c0,0-5,7.5-12-1c0,0-67.8,76.5-93.8,67.5c0,0-84,64-130.7,66
	C1951,910.5,2910,903,2910,903z"/>
<path class="st2" d="M1877.1,662.5c0,0-36,21-61,32s-46,22-46,22l-6,5c0,0-15,0-27,12s-16,2-16,2s-115,68-157,75s-95,61-153,62
	s922.5,4.5,922.5,4.5h122c0,0-193-55-234-76c0,0-44-9-48-13c0,0-27-2-35-5s-74-21-82-27c0,0-33-10-52-23s-14-8-14-8s0,7-7,0
	S1929.6,699,1877.1,662.5z"/>
<rect y="864" class="st3" width="3840" height="576"/>
</svg>
