<?xml version="1.0" encoding="utf-8"?>
<!-- Generator: Adobe Illustrator 24.0.1, SVG Export Plug-In . SVG Version: 6.00 Build 0)  -->
<svg version="1.1" xmlns="http://www.w3.org/2000/svg" xmlns:xlink="http://www.w3.org/1999/xlink" x="0px" y="0px"
	 viewBox="0 0 2000 2000" style="enable-background:new 0 0 2000 2000;" xml:space="preserve">
<style type="text/css">
	.st0{fill:none;stroke:#FFFFFF;stroke-width:100;stroke-linecap:round;stroke-miterlimit:10;}
	.st1{fill:none;stroke:#FFFFFF;stroke-width:100;stroke-miterlimit:10;}
	.st2{display:none;}
	.st3{display:inline;}
	.st4{fill:#FFFFFF;}
</style>
<g id="Layer_1">
	<line class="st0" x1="1194.1" y1="275.6" x2="805.9" y2="1724.4"/>
	<g>
		<path class="st1" d="M114.7,961.8c-19.5,19.5-19.5,51.2,0,70.7"/>
		<line class="st0" x1="109.7" y1="967.5" x2="498.6" y2="578.6"/>
		<line class="st0" x1="113.9" y1="1032.5" x2="502.9" y2="1421.4"/>
	</g>
	<g>
		<path class="st1" d="M1885.3,1038.2c19.5-19.5,19.5-51.2,0-70.7"/>
		<line class="st0" x1="1890.3" y1="1032.5" x2="1501.4" y2="1421.4"/>
		<line class="st0" x1="1886.1" y1="967.5" x2="1497.1" y2="578.6"/>
	</g>
</g>
<g id="Layer_2" class="st2">
	<g class="st3">
		<path class="st4" d="M1000,200c108,0,212.8,21.1,311.4,62.8c47.4,20,93.1,44.9,135.9,73.7c42.4,28.6,82.2,61.5,118.5,97.7
			c36.2,36.2,69.1,76.1,97.7,118.5c28.9,42.8,53.7,88.5,73.7,135.9c41.7,98.6,62.8,203.3,62.8,311.4s-21.1,212.8-62.8,311.4
			c-20,47.4-44.9,93.1-73.7,135.9c-28.6,42.4-61.5,82.2-97.7,118.5c-36.2,36.2-76.1,69.1-118.5,97.7
			c-42.8,28.9-88.5,53.7-135.9,73.7c-98.6,41.7-203.3,62.8-311.4,62.8s-212.8-21.1-311.4-62.8c-47.4-20-93.1-44.9-135.9-73.7
			c-42.4-28.6-82.2-61.5-118.5-97.7c-36.2-36.2-69.1-76.1-97.7-118.5c-28.9-42.8-53.7-88.5-73.7-135.9
			C221.1,1212.8,200,1108,200,1000s21.1-212.8,62.8-311.4c20-47.4,44.9-93.1,73.7-135.9c28.6-42.4,61.5-82.2,97.7-118.5
			s76.1-69.1,118.5-97.7c42.8-28.9,88.5-53.7,135.9-73.7C787.2,221.1,892,200,1000,200 M1000,100c-497.1,0-900,402.9-900,900
			s402.9,900,900,900s900-402.9,900-900S1497.1,100,1000,100L1000,100z"/>
	</g>
	<g class="st3">
		<g>
			<polygon class="st4" points="1075,475 925,475 925,625 1075,625 1075,475 			"/>
		</g>
		<g>
			<polygon class="st4" points="1075,775 925,775 775,775 775,925 925,925 925,1375 775,1375 775,1525 925,1525 1075,1525 
				1225,1525 1225,1375 1075,1375 1075,925 1075,775 			"/>
		</g>
	</g>
</g>
</svg>
