<?xml version="1.0" encoding="utf-8"?>
<!-- Generator: Adobe Illustrator 24.0.1, SVG Export Plug-In . SVG Version: 6.00 Build 0)  -->
<svg version="1.1" xmlns="http://www.w3.org/2000/svg" xmlns:xlink="http://www.w3.org/1999/xlink" x="0px" y="0px"
	 viewBox="0 0 2000 2000" style="enable-background:new 0 0 2000 2000;" xml:space="preserve">
<style type="text/css">
	.st0{display:none;}
	.st1{display:inline;fill:none;stroke:#FFFFFF;stroke-width:100;stroke-linecap:round;stroke-miterlimit:10;}
	.st2{display:inline;}
	.st3{fill:none;stroke:#FFFFFF;stroke-width:100;stroke-miterlimit:10;}
	.st4{fill:none;stroke:#FFFFFF;stroke-width:100;stroke-linecap:round;stroke-miterlimit:10;}
	.st5{fill:#FFFFFF;}
	.st6{display:inline;fill:#FFFFFF;}
	.st7{fill:none;stroke:#FFFFFF;stroke-width:100;stroke-linecap:round;stroke-linejoin:round;stroke-miterlimit:10;}
	.st8{display:inline;fill:none;stroke:#FFFFFF;stroke-width:100;stroke-linecap:round;stroke-linejoin:round;stroke-miterlimit:10;}
	.st9{display:none;fill:none;stroke:#FFFFFF;stroke-width:100;stroke-linecap:round;stroke-linejoin:round;stroke-miterlimit:10;}
</style>
<g id="Layer_1" class="st0">
</g>
<g id="Layer_3" class="st0">
	<line class="st1" x1="1194.1" y1="275.6" x2="805.9" y2="1724.4"/>
	<g class="st2">
		<path class="st3" d="M114.7,961.8c-19.5,19.5-19.5,51.2,0,70.7"/>
		<line class="st4" x1="109.7" y1="967.5" x2="498.6" y2="578.6"/>
		<line class="st4" x1="113.9" y1="1032.5" x2="502.9" y2="1421.4"/>
	</g>
	<g class="st2">
		<path class="st3" d="M1885.3,1038.2c19.5-19.5,19.5-51.2,0-70.7"/>
		<line class="st4" x1="1890.3" y1="1032.5" x2="1501.4" y2="1421.4"/>
		<line class="st4" x1="1886.1" y1="967.5" x2="1497.1" y2="578.6"/>
	</g>
</g>
<g id="Layer_2" class="st0">
	<g class="st2">
		<path class="st5" d="M1000,225c104.7,0,206.2,20.5,301.6,60.9c45.9,19.4,90.2,43.4,131.6,71.4c41.1,27.7,79.7,59.6,114.8,94.7
			c35.1,35.1,67,73.7,94.7,114.8c28,41.4,52,85.7,71.4,131.6c40.4,95.5,60.9,197,60.9,301.6s-20.5,206.2-60.9,301.6
			c-19.4,45.9-43.4,90.2-71.4,131.6c-27.7,41.1-59.6,79.7-94.7,114.8c-35.1,35.1-73.7,67-114.8,94.7c-41.4,28-85.7,52-131.6,71.4
			c-95.5,40.4-197,60.9-301.6,60.9s-206.2-20.5-301.6-60.9c-45.9-19.4-90.2-43.4-131.6-71.4c-41.1-27.7-79.7-59.6-114.8-94.7
			c-35.1-35.1-67-73.7-94.7-114.8c-28-41.4-52-85.7-71.4-131.6c-40.4-95.5-60.9-197-60.9-301.6s20.5-206.2,60.9-301.6
			c19.4-45.9,43.4-90.2,71.4-131.6C385,525.7,416.9,487.1,452,452s73.7-67,114.8-94.7c41.4-28,85.7-52,131.6-71.4
			C793.8,245.5,895.3,225,1000,225 M1000,125c-483.2,0-875,391.8-875,875s391.8,875,875,875s875-391.8,875-875S1483.2,125,1000,125
			L1000,125z"/>
	</g>
	<g>
		<polygon class="st6" points="1075,475 925,475 925,625 1075,625 1075,475 		"/>
	</g>
	<g>
		<polygon class="st6" points="1075,775 925,775 775,775 775,925 925,925 925,1375 775,1375 775,1525 925,1525 1075,1525 1225,1525 
			1225,1375 1075,1375 1075,925 1075,775 		"/>
	</g>
	<g class="st2">
		<g>
			<polygon class="st5" points="1050,700 950,700 850,700 850,800 950,800 950,1400 850,1400 850,1500 950,1500 1050,1500 
				1150,1500 1150,1400 1050,1400 1050,800 1050,700 			"/>
		</g>
		<g>
			<polygon class="st5" points="1050,500 950,500 950,600 1050,600 1050,500 			"/>
		</g>
	</g>
</g>
<g id="Layer_5" class="st0">
	<g class="st2">
		<path class="st5" d="M1000,250l750,529.4h-176.8V1750H1250v-550H750v550H426.2V779.4H250L1000,250 M1000,150
			c-20.2,0-40.4,6.1-57.7,18.3l-750,529.4c-35.6,25.1-50.8,70.4-37.6,111.9c13.2,41.5,51.7,69.7,95.3,69.7h76.2V1750
			c0,26.5,10.5,52,29.3,70.7s44.2,29.3,70.7,29.3H750c26.5,0,52-10.5,70.7-29.3c18.8-18.8,29.3-44.2,29.3-70.7v-450h300v450
			c0,26.5,10.5,52,29.3,70.7s44.2,29.3,70.7,29.3h323.2c26.5,0,52-10.5,70.7-29.3c18.8-18.8,29.3-44.2,29.3-70.7V879.4h76.8
			c43.6,0,82.1-28.2,95.3-69.7c13.2-41.5-2-86.8-37.6-111.9l-750-529.4C1040.4,156.1,1020.2,150,1000,150L1000,150z"/>
	</g>
</g>
<g id="Layer_6" class="st0">
	<g class="st2">
		<polygon class="st7" points="1178.9,1000 150,403.5 150,1596.5 		"/>
		<line class="st7" x1="1477.2" y1="403.5" x2="1477.2" y2="1596.5"/>
		<line class="st7" x1="1850" y1="403.5" x2="1850" y2="1596.5"/>
	</g>
</g>
<g id="Layer_4" class="st0">
	<rect x="399.5" y="175" class="st8" width="1475" height="412.5"/>
	<rect x="400" y="793.8" class="st8" width="502" height="412.5"/>
	<rect x="400" y="1412.5" class="st8" width="970" height="412.5"/>
	<line class="st8" x1="175" y1="175" x2="175" y2="1825"/>
</g>
<g id="Layer_7" class="st0">
	<rect x="150" y="150" class="st8" width="1700" height="1700"/>
	<g class="st2">
		<path class="st3" d="M609.8,828.3c-19.5-19.5-51.2-19.5-70.7,0"/>
		<line class="st4" x1="604.1" y1="823.4" x2="1632.4" y2="1851.6"/>
		<line class="st4" x1="539.1" y1="827.6" x2="150.2" y2="1216.5"/>
	</g>
	<g class="st2">
		<path class="st3" d="M1335.1,961.8c-19.5-19.5-51.2-19.5-70.7,0"/>
		<line class="st4" x1="1329.4" y1="956.8" x2="1830.3" y2="1457.7"/>
		<line class="st4" x1="1264.4" y1="961.1" x2="1008.7" y2="1216.7"/>
	</g>
</g>
<g id="Layer_8">
	<path class="st0" d="M1714.1,819.4c-40.6-40.6-88-72.5-140.7-94.9c-54.7-23.1-112.7-34.8-172.4-34.8H592.8
		c-59.7,0-117.7,11.7-172.4,34.8c-52.7,22.3-100.1,54.2-140.7,94.9c-40.6,40.6-72.5,88-94.9,140.7c-23.1,54.7-34.9,112.7-34.9,172.4
		c0,59.8,11.7,117.7,34.9,172.4c22.3,52.7,54.2,100.1,94.9,140.7c40.6,40.6,88,72.5,140.7,94.8c54.7,23.1,112.7,34.9,172.4,34.9
		c69.8,0,139.4-16.7,201.2-48.3c41.5-21.2,79.8-49.2,112.8-82.4h180.1c33,33.2,71.3,61.2,112.8,82.4
		c61.9,31.6,131.4,48.3,201.2,48.3c59.8,0,117.7-11.7,172.4-34.9c52.7-22.3,100.1-54.2,140.7-94.8c40.6-40.7,72.6-88,94.9-140.7
		c23.1-54.7,34.8-112.6,34.8-172.4c0-59.7-11.7-117.7-34.8-172.4C1786.6,907.4,1754.7,860.1,1714.1,819.4z M1400.9,1459.3
		c-106.8,0-201.7-51.3-261.3-130.7H854.2c-59.6,79.4-154.5,130.7-261.3,130.7c-180.4,0-326.7-146.2-326.7-326.7
		c0-180.4,146.3-326.7,326.7-326.7h808.1c180.4,0,326.7,146.3,326.7,326.7C1727.6,1313,1581.4,1459.3,1400.9,1459.3z"/>
	<circle class="st0" cx="1400.9" cy="1263.2" r="65.3"/>
	<circle class="st0" cx="1531.6" cy="1132.6" r="65.3"/>
	<circle class="st0" cx="1270.3" cy="1132.6" r="65.3"/>
	<circle class="st0" cx="1400.9" cy="1001.9" r="65.3"/>
	<path class="st0" d="M756.2,1067.2h-98v-98c0-18-14.6-32.7-32.6-32.7h-65.3c-18,0-32.7,14.6-32.7,32.7v98h-98
		c-18,0-32.6,14.6-32.6,32.7v65.3c0,18,14.6,32.7,32.6,32.7h98v98c0,18.1,14.6,32.7,32.7,32.7h65.3c18,0,32.6-14.6,32.6-32.7v-98h98
		c18,0,32.7-14.6,32.7-32.7v-65.3C788.9,1081.9,774.2,1067.2,756.2,1067.2z"/>
	<path class="st9" d="M1469.8,923.2H530.2c-210,0-380.2,167.9-380.2,375s170.2,375,380.2,375c134.1,0,251.9-68.5,319.6-171.9h300.4
		c67.7,103.4,185.6,171.9,319.6,171.9c210,0,380.2-167.9,380.2-375S1679.8,923.2,1469.8,923.2z"/>
	<path class="st0" d="M563.6,707.4c-93.3,0-179.9,49-227.9,128.9l-3.1,5.2l-1.9,5.8c0,0-37.9,116.6-76,255.5s-77.2,295.7-77.2,398.4
		c0,146.1,119.5,265.6,265.6,265.6c128.8,0,236.8-92.6,260.4-215l-1.5,6.2c6.7-21,12.6-45.3,18.1-68.5c5.8-24.6,26.9-41.5,51.9-41.5
		h510.9c25.1,0,46.1,16.8,51.9,41.5c5.4,23.1,11.3,47.5,18.1,68.5l-1.5-6.2c23.7,122.5,131.7,215,260.4,215
		c146.1,0,265.6-119.5,265.6-265.6c0-102.7-39.2-259.5-77.2-398.4c-38-138.9-76-255.5-76-255.5l-1.9-5.8l-3.1-5.2
		c-47.9-79.9-134.6-128.9-227.9-128.9H563.6z M563.6,813.7h928c55.2,0,105.6,29.5,134.7,76.2c2.7,8.4,35.8,110.3,71.6,241.1
		c37.3,136.1,73.5,298,73.5,370.2c0,88.7-70.7,159.4-159.4,159.4c-78,0-142.1-55.5-156.3-128.9l-0.6-3.1l-0.8-2.9
		c-5-15.5-10.8-38.1-16-60.2v-0.2c-16.8-71.7-81.2-123.5-155.2-123.5H772.2c-74.1,0-138.5,51.8-155.2,123.7c-5.2,22-11,44.7-16,60.2
		l-0.8,2.9l-0.6,3.1c-14.2,73.3-78.1,128.9-156.3,128.9c-88.7,0-159.4-70.7-159.4-159.4c0-72.2,36.2-234.1,73.5-370.2
		c35.8-130.8,68.9-232.7,71.6-241.1C458,843.1,508.4,813.7,563.6,813.7z M602.6,916.8v106.3H496.4v106.2h106.3v106.3h106.3v-106.3
		h106.3v-106.2H708.9V916.8H602.6z M1399.5,916.8c-29.3,0-53.1,23.8-53.1,53.1s23.8,53.1,53.1,53.1s53.1-23.8,53.1-53.1
		S1428.8,916.8,1399.5,916.8z M1293.2,1023.1c-29.3,0-53.1,23.8-53.1,53.1c0,29.3,23.8,53.1,53.1,53.1s53.1-23.8,53.1-53.1
		C1346.4,1046.9,1322.6,1023.1,1293.2,1023.1z M1505.7,1023.1c-29.3,0-53.1,23.8-53.1,53.1c0,29.3,23.8,53.1,53.1,53.1
		s53.1-23.8,53.1-53.1C1558.9,1046.9,1535.1,1023.1,1505.7,1023.1z M1399.5,1129.3c-29.3,0-53.1,23.8-53.1,53.1
		c0,29.3,23.8,53.1,53.1,53.1s53.1-23.8,53.1-53.1C1452.6,1153.1,1428.8,1129.3,1399.5,1129.3z"/>
	<g>
		<path class="st7" d="M695.6,770.9c0,0-16.1-296.8,296.8-296.8S1304.6,175,1304.6,175"/>
		<path class="st3" d="M536,775c-93.3,0-179.9,48.5-227.9,127.7l-3.1,5.1l-1.9,5.8c0,0-37.9,115.5-76,253.2S150,1460,150,1561.7
			c0,144.8,119.5,263.3,265.6,263.3c128.8,0,236.8-91.8,260.4-213.1l-1.5,6.2c6.7-20.8,12.6-44.9,18.1-67.9
			c5.8-24.4,26.9-41.1,51.9-41.1h510.9c25.1,0,46.1,16.6,51.9,41.1c5.4,22.9,11.3,47.1,18.1,67.9l-1.5-6.2
			c23.7,121.4,131.7,213.1,260.4,213.1c146.1,0,265.6-118.5,265.6-263.3c0-101.8-39.2-257.2-77.2-394.9c-38-137.7-76-253.2-76-253.2
			l-1.9-5.8l-3.1-5.1C1644,823.5,1557.3,775,1464,775H536z"/>
	</g>
	<g>
		<circle class="st5" cx="1400" cy="1010" r="50"/>
		<circle class="st5" cx="1300" cy="1110" r="50"/>
		<circle class="st5" cx="1500" cy="1110" r="50"/>
		<circle class="st5" cx="1400" cy="1210" r="50"/>
	</g>
	<polygon class="st5" points="550,960 550,1060 450,1060 450,1160 550,1160 550,1260 650,1260 650,1160 750,1160 750,1060 650,1060 
		650,960 	"/>
</g>
</svg>
