<?xml version="1.0" encoding="utf-8"?>
<!-- Generator: Adobe Illustrator 24.0.1, SVG Export Plug-In . SVG Version: 6.00 Build 0)  -->
<svg version="1.1" id="Layer_1" xmlns="http://www.w3.org/2000/svg" xmlns:xlink="http://www.w3.org/1999/xlink" x="0px" y="0px"
	 viewBox="0 0 3840 1440" style="enable-background:new 0 0 3840 1440;" xml:space="preserve">
<style type="text/css">
	.st0{fill:url(#SVGID_1_);}
	.st1{fill:#E74037;}
	.st2{fill:#C7283D;}
	.st3{fill:#7C0031;}
</style>
<linearGradient id="SVGID_1_" gradientUnits="userSpaceOnUse" x1="1920" y1="1440" x2="1920" y2="0" gradientTransform="matrix(1 0 0 -1 0 1440)">
	<stop  offset="1.733953e-07" style="stop-color:#00385C"/>
	<stop  offset="1" style="stop-color:#005282"/>
</linearGradient>
<rect class="st0" width="3840" height="1440"/>
<path class="st1" d="M1091.2,911.9c0,0,97-25.3,137-58.5c0,0,0.7,7.9,18.6,0c17.9-7.9,62-45,67.7-56.1c0,0-4.6,20.1,95.9-69.1
	c0,0,18.6,22.9,32.1,11.1c0,0,12.9,15,20.7,14.2c0,0,53.3,42.3,92.8,58.1c0,0,3.4,5.9,8.3-0.8c0,0,46.6,60.4,64.5,53.3
	c0,0,57.8,50.6,89.9,52.1C1750.8,917.8,1091.2,911.9,1091.2,911.9z"/>
<path class="st1" d="M2682.4,890.2c0,0-111.5-25.3-157.4-58.5c0,0-0.8,7.9-21.3,0c-20.5-7.9-71.3-45-77.8-56.1
	c0,0,5.3,20.1-110.2-69.1c0,0-21.3,22.9-36.9,11.1c0,0-14.8,15-23.8,14.2c0,0-61.2,42.3-106.6,58.1c0,0-3.9,5.9-9.5-0.8
	c0,0-53.6,60.4-74.1,53.3c0,0-66.4,50.6-103.3,52.1C1924.8,896.1,2682.4,890.2,2682.4,890.2z"/>
<path class="st2" d="M1051,702.2c0,0,32.2,16.6,54.6,25.3c22.4,8.7,41.1,17.4,41.1,17.4l5.4,3.9c0,0,13.4,0,24.1,9.5
	c10.7,9.5,14.3,1.6,14.3,1.6s102.9,53.7,140.4,59.2c37.6,5.5,85,48.2,136.8,49c51.9,0.8-825.1,3.6-825.1,3.6H533.6
	c0,0,172.6-43.4,209.3-60c0,0,39.4-7.1,42.9-10.3c0,0,24.1-1.6,31.3-4c7.2-2.4,66.2-16.6,73.3-21.3c0,0,29.5-7.9,46.5-18.2
	s12.5-6.3,12.5-6.3s0,5.5,6.3,0C962,746,1004,731,1051,702.2z"/>
<path class="st2" d="M1866.5,700.2c0,0-28.4,16.6-48.2,25.3c-19.7,8.7-36.3,17.4-36.3,17.4l-4.7,3.9c0,0-11.8,0-21.3,9.5
	c-9.5,9.5-12.6,1.6-12.6,1.6s-90.8,53.7-124,59.2c-33.2,5.5-75,48.2-120.9,49c-45.8,0.8,728.8,3.6,728.8,3.6h96.4
	c0,0-152.5-43.4-184.9-60c0,0-34.8-7.1-37.9-10.3c0,0-21.3-1.6-27.6-4c-6.3-2.4-58.5-16.6-64.8-21.3c0,0-26.1-7.9-41.1-18.2
	s-11.1-6.3-11.1-6.3s0,5.5-5.5,0C1945.1,744,1907.9,729,1866.5,700.2z"/>
<path class="st2" d="M2895.4,700.2c0,0,32.2,16.6,54.6,25.3c22.4,8.7,41.1,17.4,41.1,17.4l5.4,3.9c0,0,13.4,0,24.1,9.5
	c10.7,9.5,14.3,1.6,14.3,1.6s102.9,53.7,140.4,59.2c37.6,5.5,85,48.2,136.8,49c51.9,0.8-825.1,3.6-825.1,3.6h-109.1
	c0,0,172.6-43.4,209.3-60c0,0,39.4-7.1,42.9-10.3c0,0,24.1-1.6,31.3-4c7.2-2.4,66.2-16.6,73.3-21.3c0,0,29.5-7.9,46.5-18.2
	s12.5-6.3,12.5-6.3s0,5.5,6.3,0C2806.4,744,2848.4,729,2895.4,700.2z"/>
<rect y="864" class="st3" width="3840" height="576"/>
</svg>
