<?xml version="1.0" encoding="utf-8"?>
<!-- Generator: Adobe Illustrator 24.0.1, SVG Export Plug-In . SVG Version: 6.00 Build 0)  -->
<svg version="1.1" xmlns="http://www.w3.org/2000/svg" xmlns:xlink="http://www.w3.org/1999/xlink" x="0px" y="0px"
	 viewBox="0 0 3840 1440" style="enable-background:new 0 0 3840 1440;" xml:space="preserve">
<style type="text/css">
	.st0{fill:url(#SVGID_1_);}
	.st1{fill:#E74037;}
	.st2{fill:#C7283D;}
	.st3{fill:#A51931;}
	.st4{fill:#7C0031;}
	.st5{display:none;}
	.st6{display:inline;fill:#A59279;}
	.st7{display:inline;}
	.st8{fill:none;stroke:#B2B2B2;stroke-miterlimit:10;}
	.st9{fill:none;stroke:#B2B2B2;stroke-width:2;stroke-miterlimit:10;}
	.st10{fill:none;stroke:#B2B2B2;stroke-width:3;stroke-miterlimit:10;}
	.st11{fill:#FFFFFF;stroke:#B2B2B2;stroke-miterlimit:10;}
	.st12{fill:none;stroke:#FFFFFF;stroke-miterlimit:10;}
	.st13{fill:none;stroke:#FFFFFF;stroke-width:2;stroke-miterlimit:10;}
	.st14{fill:none;stroke:#FFFFFF;stroke-width:3;stroke-miterlimit:10;}
	.st15{fill:#FFFFFF;stroke:#FFFFFF;stroke-miterlimit:10;}
	.st16{display:inline;fill:#96918A;}
	.st17{display:inline;fill:#87837E;}
	.st18{display:inline;fill:#8C8883;}
	.st19{fill:none;stroke:#666666;stroke-miterlimit:10;}
	.st20{fill:#FFFFFF;stroke:#666666;stroke-miterlimit:10;}
	.st21{fill:none;stroke:#C6C6C6;stroke-miterlimit:10;}
	.st22{fill:#C6C6C6;stroke:#C6C6C6;stroke-miterlimit:10;}
</style>
<g id="Layer_1">
	<linearGradient id="SVGID_1_" gradientUnits="userSpaceOnUse" x1="1920" y1="-9.094947e-13" x2="1920" y2="1440">
		<stop  offset="1.733953e-07" style="stop-color:#00385C"/>
		<stop  offset="1" style="stop-color:#005282"/>
	</linearGradient>
	<rect class="st0" width="3840" height="1440"/>
	<path class="st1" d="M1308.8,762.9c0,0,49.9,27,92.8,27.7c0,0,10.7,3.7,18.9-5.7c0,0,0,6.5,8.6,0c0,0,28.6,4,57.2-8.9
		s60.1-34.1,60.1-34.1s6.4,14.7,24.3,18c0,0,5.4,3.2,10.7-2.5c0,0,1.8,6.4,21.8,11.8c0,0,8.9,1.4,12.2-2.5c0,0,3.6,5.4,26.1,11.5
		c22.5,6.1,31.5,9,32.9-2.1c0,0,8.6,16.1,45.8-4.9c37.2-20.9,27.1,49.5,27.1,49.5l-210.2,114.4l-262.4-44.3L1308.8,762.9z"/>
	<path class="st1" d="M875.4,814.8c0,0,24.2,15.7,51.5,3.4c0,0-1.3,5.5,20.2-1.3c21.5-6.8-17.5,7.6,40-5c0,0,31.1-5.8,38.7-17.3
		c0,0,2.6,8.3,23.3,11.2c0,0,18.2,30.5,25.9,17.1c7.7-13.4,16.8,35,16.8,35l-18.6,42.7l-179.8-28.3L875.4,814.8z"/>
	<path class="st1" d="M2619.8,850.9c0,0-111.5-21.9-157.4-50.6c0,0-0.8,6.8-21.3,0s-15.3-10.9-21.8-20.5c0,0,5.3,17.4-110.2-59.8
		c0,0-21.3,19.8-36.9,9.6c0,0-14.8,13-23.8,12.3c0,0-61.2,36.6-106.6,50.2c0,0-3.9,5.1-9.5-0.7c0,0-53.6,52.2-74.1,46.1
		c0,0-66.4,43.8-103.3,45.1"/>
	<path class="st2" d="M2915.8,820.3c0,0,39.8,30,108.1,13.1c0,0-2.1,16.3,88.8-24.8c0,0-2.8,10.6,11,6c13.8-4.6,70.1-9.6,99.8-35
		c29.7-25.5,31.5-29,31.5-29s14.5,16.6,39.6,8.5c0,0,4.6,6,11,1.4c0,0,8.1,19.8,136.9,67.9c0,0,8.1,5.3,13.8-1.1s25.1,39.6,190,41.4
		l-807.8,2.1"/>
	<path class="st2" d="M262.7,872.9c-43.6,7.6,961.5,2.3,961.5,2.3l-155.9-41.3c-0.4,0.6-5.5,20.2-67.4-6.7c0,0-7.6,11.2-16.2-3.6
		c0,0,1,19.8-67.5,4.6c-68.5-15.2-98.4-52.3-98.4-52.3s-2.5,6.6-12.2,0c0,0-24.9,24.4-37.5,11.7c0,0-11.7,5.6-26.9,9.1
		c0,0-6.6,13.6-31.5,11.9c-24.9-1.7-32.5-6.3-32.5-6.3s-47.2,37.4-84.2,39"/>
	<path class="st2" d="M1560.7,845.5c0,0-20.6,22.1-74.4-1.9c0,0,1.2,7.8-8.6,0c-9.8-7.8,18.7,19.1-63-34.6c0,0,9.5,11.3-62.7-25.4
		c-72.2-36.7-101.3-41.7-101.3-41.7s-7,16.9-51.1,23.3s-75.3,15.9-75.3,15.9s-12.2,8.5-14.1,1.1s-19,38.5-30.9,30.7
		c0,0-17.5,53-69.8,55.9s592.1-1.5,592.1-1.5L1560.7,845.5z"/>
	<path class="st2" d="M2233.4,842.9c0,0,42.4,18.2,112.7-10.2c0,0,2.5,7.5,23.9-4.5c21.4-12,92.7,2.5,134.5-24.4c0,0,6,6.5,17.9,0
		c12-6.5-7,12,23.4,2.5c30.4-9.5,167.9-56.8,181.9-75.2c0,0,44.3,25.9,58.3,12c0,0,15.9,14.4,67.3,23.9c0,0,69.3,93.5,223.2,102.8
		c154,9.3-890.9,5.5-890.9,5.5L2233.4,842.9z"/>
	<path class="st2" d="M1068.4,833.9c-0.4,0.6-5.5,20.2-67.4-6.7c0,0-7.6,11.2-16.2-3.6c0,0,1,19.8-67.5,4.6
		c-68.5-15.2-98.4-52.3-98.4-52.3s-2.5,6.6-12.2,0c0,0-24.9,24.4-37.5,11.7c0,0-11.7,5.6-26.9,9.1c0,0-6.6,13.6-31.5,11.9
		c-24.9-1.7-32.5-6.3-32.5-6.3s-47.2,37.4-84.2,39c-37,1.6-110.1,9.2-119.2-11.1c0,0,1,17.8-49.7-28.4c0,0,0.5,8.1-50.7-20.3
		c0,0-21.8,32.5-43.1,33.5c0,0-7.6,7.1-10.1,1c-2.5-6.1-14.7,49.2-58.3,56.8s961.5,2.3,961.5,2.3L1068.4,833.9z"/>
	<path class="st2" d="M2323.7,869.7c0,0-152.5-43.4-184.9-60c0,0-34.8-7.1-37.9-10.3c0,0-21.3-1.6-27.6-4s-58.5-16.6-64.8-21.3
		c0,0-26.1-7.9-41.1-18.2s-11.1-6.3-11.1-6.3s0,5.5-5.5,0c-5.7-5.6-42.9-20.6-84.3-49.4c0,0-28.4,16.6-48.2,25.3
		c-19.7,8.7-36.3,17.4-36.3,17.4l-4.7,3.9c0,0-11.8,0-21.3,9.5s-12.6,1.6-12.6,1.6s-90.8,53.7-124,59.2s-75,48.2-120.9,49"/>
	<path class="st3" d="M1452.7,866.9l302.5,8.3l111.3-175c0,0-28.4,16.6-48.2,25.3c-19.7,8.7-36.3,17.4-36.3,17.4l-4.7,3.9
		c0,0-11.8,0-21.3,9.5s-12.6,1.6-12.6,1.6s-90.8,53.7-124,59.2s-75,48.2-120.9,49L1452.7,866.9z"/>
	<path class="st3" d="M1250.7,741.9c0,0-7,16.9-51.1,23.3s-75.3,15.9-75.3,15.9s-12.2,8.5-14.1,1.1s-19,38.5-30.9,30.7
		c0,0-17.5,53-69.8,55.9s144.2,25.7,144.2,25.7L1250.7,741.9z"/>
	<path class="st3" d="M2728.9,731l-91.5,144.5l-399.8-7.1c0,0,0,0,108.5-35.8c0,0,2.5,7.5,23.9-4.5c21.4-12,92.7,2.5,134.5-24.4
		c0,0,6,6.5,17.9,0c12-6.5-7,12,23.4,2.5c30.4-9.5,167.9-56.8,181.9-75.2"/>
	<path class="st3" d="M3254.9,750.6c0,0-1.8,3.5-31.5,29c-29.7,25.5-86,30.4-99.8,35c-13.8,4.6-11-6-11-6
		c-90.9,41-88.8,24.8-88.8,24.8c-68.3,17-185.4,37.5-185.4,37.5l335.3,8"/>
	<path class="st3" d="M594.1,841.4c36.1-8.3,84.2-39,84.2-39s7.6,4.6,32.5,6.3c24.9,1.7,31.5-11.9,31.5-11.9
		c15.2-3.6,26.9-9.1,26.9-9.1c12.7,12.7,37.5-11.7,37.5-11.7c9.6,6.6,12.2,0,12.2,0l-67.2,106l-236.4-14L594.1,841.4z"/>
	<path class="st3" d="M374.4,781.6c0,0-21.8,32.5-43.1,33.5c0,0-7.6,7.1-10.1,1c-2.5-6.1-14.7,49.2-58.3,56.8s27.5,43.8,27.5,43.8
		L374.4,781.6z"/>
	<rect y="864" class="st4" width="3840" height="576"/>
	
		<image style="display:none;overflow:visible;" width="408" height="612" xlink:href="410E16B2.jpg"  transform="matrix(1 0 0 1 1792.0719 255.1313)">
	</image>
</g>
<g id="Layer_2" class="st5">
	
		<image style="overflow:visible;" width="1024" height="576" xlink:href="410E16B1.jpg"  transform="matrix(1.989 0 0 2.0518 1277.8527 72.0051)">
	</image>
	<polygon class="st6" points="2133.3,1440 1706.7,1440 1862.6,956.1 1977.4,956.1 	"/>
	<g class="st7">
		<g>
			<path class="st8" d="M1411.1,1160.3c-0.7,0.4-15.1,13.2-15.1,13.2l16.5,11.3c0-0.3-36-24.5-36-24.5h-8.3l-19.4,12.7l-19.4,12.7
				l18.8-12.3l-16.3-13.2"/>
			<path class="st9" d="M1412.6,1187.3h-82.3l1.5-26.9h79.3l-2.1-31l-73.8-0.3l2.5-29.4h69.7l-1.8-30.8h-65l3.1-30.3h60.1l-1.7-28.1
				h-55.6l2.6-27.9h51.3l-1.6-26.9h-47.1c0,0,3.3-33.7,3.3-33.5c0,0.2,42.5,0,42.5,0l-2.5-30.2h-36l1.9-29.9h32.4l-1.5-24.8h-28.5
				l2.3-23.5h24.8l-1.2-20.2h-23"/>
			<polyline class="st10" points="1414.6,1220.4 1387.6,765.2 1370.4,765.2 1325.7,1223.2 			"/>
			<path class="st8" d="M1408,1099.6c-0.6,0.5-13.5,15.3-13.5,15.3l14.7,13.2c0-0.3-32.1-28.5-32.1-28.5h-7.4l-17.3,14.8l-17.3,14.8
				l16.7-14.3l-14.5-15.3"/>
			<path class="st8" d="M1406.3,1068.8c-0.6,0.5-12.5,15.9-12.5,15.9l13.7,13.7c0-0.4-29.8-29.5-29.8-29.5h-6.9l-16.1,15.4
				l-16.1,15.4l15.5-14.9l-13.5-15.9"/>
			<path class="st8" d="M1403.8,1038.5c-0.5,0.5-11.6,15.7-11.6,15.7l12.6,13.5c0-0.3-27.6-29.1-27.6-29.1h-6.4l-14.9,15.2
				l-14.9,15.2l14.4-14.7l-12.5-15.7"/>
			<path class="st8" d="M1402.9,1010.5c-0.5,0.5-10.9,14.5-10.9,14.5l11.9,12.5c0-0.3-26-26.9-26-26.9h-6l-14,14l-14,14l13.5-13.6
				l-11.7-14.5"/>
			<path class="st8" d="M1408.6,1129.2c-0.7,0.5-14.1,16.1-14.1,16.1l15.4,13.8c0-0.4-33.7-29.9-33.7-29.9h-7.8l-18.1,15.6
				l-18.1,15.6l17.5-15l-15.2-16.1"/>
			<path class="st8" d="M1400.4,982.5c-0.5,0.5-9.7,14.5-9.7,14.5l10.6,12.4c0-0.3-23.1-26.9-23.1-26.9h-5.3l-12.5,14l-12.5,14
				l12.1-13.5l-10.5-14.5"/>
			<path class="st8" d="M1399.3,955.6c-0.4,0.5-9,13.9-9,13.9l9.9,12c0-0.3-21.5-25.9-21.5-25.9h-5l-11.6,13.5l-11.6,13.5l11.2-13
				l-9.7-13.9"/>
			<path class="st8" d="M1397.2,922.3c-0.4,0.6-8.1,17.3-8.1,17.3l8.8,14.9c0-0.4-19.3-32.2-19.3-32.2h-4.5l-10.4,16.8l-10.4,16.8
				l10-16.2l-8.7-17.3"/>
			<path class="st8" d="M1395.7,892.1c-0.3,0.5-7.3,15.6-7.3,15.6l8,13.4c0-0.3-17.5-29.1-17.5-29.1h-4l-9.4,15.1l-9.4,15.1
				l9.1-14.6l-7.9-15.6"/>
			<path class="st8" d="M1360.5,861.9l6.8,15.6l-7.8,14.6l8.1-15.1l8.1-15.1h3.5c0,0,15,28.7,15,29.1l-6.9-13.4c0,0,6-15.1,6.3-15.6
				l-30.2-24.6l27.1-23.5l-22.9-19.8l19.3-28.9"/>
			<polyline class="st8" points="1370.4,765.2 1389.3,793.6 1365.7,813.9 1391.9,837.3 1361,862.1 			"/>
			<path class="st8" d="M1411.2,1187.3c-0.7,0.4-15.4,13.2-15.4,13.2l16.8,11.3c0-0.3-36.7-24.5-36.7-24.5h-8.5l-19.8,12.7
				l-19.8,12.7l19.1-12.3l-16.6-13.2"/>
			<polygon class="st9" points="1387.6,765.2 1387.6,737.8 1370.1,737.8 1370.1,764.4 			"/>
			<path class="st11" d="M1374,764.6h9.5c-0.8-30.6,0-62.2,0-76.8c0-8.6-4-12.8-4.7-12.8c-0.8,0-4.6,7.1-4.6,12.3
				C1374.1,701.9,1374.8,734.1,1374,764.6z"/>
		</g>
		<g>
			<path class="st12" d="M1422.2,1181.6c-0.9,0.5-20,13.8-20,13.8l21.8,11.9c0-0.3-47.5-25.7-47.5-25.7h-11l-25.6,13.4l-25.6,13.4
				l24.8-12.9l-21.5-13.8"/>
			<path class="st13" d="M1424.1,1209.8h-108.6l2-28.2h104.6l-2.8-32.5l-97.3-0.3l3.3-30.8h92l-2.4-32.3h-85.8l4.1-31.7h79.3
				l-2.2-29.4H1337l3.5-29.2h67.7l-2.1-28.2h-62.1c0,0,4.3-35.3,4.3-35.1c0,0.2,56.1,0,56.1,0l-3.3-31.7h-47.5l2.5-31.4h42.7
				l-1.9-26h-37.6l3-24.6h32.7l-1.6-21.2H1363"/>
			<polyline class="st14" points="1426.7,1244.5 1391.1,767.6 1368.5,767.6 1309.4,1247.4 			"/>
			<path class="st12" d="M1418.1,1117.9c-0.8,0.5-17.8,16-17.8,16l19.4,13.8c0-0.4-42.4-29.8-42.4-29.8h-9.8l-22.8,15.5l-22.8,15.5
				l22.1-15l-19.2-16"/>
			<path class="st12" d="M1415.8,1085.7c-0.8,0.5-16.5,16.6-16.5,16.6l18,14.3c0-0.4-39.4-30.9-39.4-30.9h-9.1l-21.2,16.1
				l-21.2,16.1l20.5-15.6l-17.8-16.6"/>
			<path class="st12" d="M1412.5,1054c-0.7,0.5-15.3,16.4-15.3,16.4l16.7,14.1c0-0.4-36.4-30.5-36.4-30.5h-8.4l-19.6,15.9
				l-19.6,15.9l19-15.4l-16.4-16.4"/>
			<path class="st12" d="M1411.3,1024.7c-0.7,0.5-14.4,15.2-14.4,15.2l15.7,13.1c0-0.3-34.3-28.2-34.3-28.2h-7.9l-18.5,14.7
				l-18.5,14.7l17.9-14.2l-15.5-15.2"/>
			<path class="st12" d="M1418.9,1149c-0.9,0.6-18.6,16.8-18.6,16.8l20.3,14.5c0-0.4-44.4-31.3-44.4-31.3h-10.3l-23.9,16.3
				l-23.9,16.3l23.1-15.8l-20.1-16.8"/>
			<path class="st12" d="M1408,995.3c-0.6,0.5-12.8,15.2-12.8,15.2l14,13c0-0.3-30.5-28.2-30.5-28.2h-7.1l-16.4,14.7l-16.4,14.7
				l15.9-14.2l-13.8-15.2"/>
			<path class="st12" d="M1406.6,967.1c-0.6,0.5-11.9,14.6-11.9,14.6l13,12.5c0-0.3-28.4-27.1-28.4-27.1h-6.6l-15.3,14.1l-15.3,14.1
				l14.8-13.6l-12.8-14.6"/>
			<path class="st12" d="M1403.8,932.2c-0.5,0.6-10.7,18.1-10.7,18.1l11.6,15.6c0-0.4-25.4-33.7-25.4-33.7h-5.9l-13.7,17.6
				l-13.7,17.6l13.2-17l-11.5-18.1"/>
			<path class="st12" d="M1401.9,900.6c-0.5,0.5-9.7,16.4-9.7,16.4l10.6,14.1c0-0.4-23.1-30.5-23.1-30.5h-5.3l-12.4,15.8l-12.4,15.8
				l12-15.3l-10.4-16.4"/>
			<path class="st12" d="M1355.4,868.9l9,16.4l-10.3,15.3l10.7-15.8l10.7-15.8h4.6c0,0,19.8,30.1,19.8,30.5l-9.1-14.1
				c0,0,7.9-15.8,8.3-16.4l-39.9-25.8l35.7-24.6l-30.2-20.7l25.5-30.2"/>
			<polyline class="st12" points="1368.5,767.6 1393.3,797.4 1362.2,818.6 1396.8,843.2 1356,869.1 			"/>
			<path class="st12" d="M1422.3,1209.8c-1,0.5-20.3,13.8-20.3,13.8l22.2,11.9c0-0.3-48.5-25.7-48.5-25.7h-11.2l-26.1,13.4
				l-26.1,13.4l25.2-12.9l-21.9-13.8"/>
			<polygon class="st13" points="1391.1,767.6 1391.1,738.9 1368.1,738.9 1368.1,766.7 			"/>
			<path class="st15" d="M1373.2,766.9h12.5c-1.1-32.1,0-65.2,0-80.4c0-9-5.2-13.4-6.3-13.4c-1,0-6.1,7.5-6.1,12.9
				C1373.4,701.2,1374.3,735,1373.2,766.9z"/>
		</g>
	</g>
	<g class="st7">
		<g>
			<path class="st8" d="M2429.9,1154.2c0.7,0.4,15.1,13.2,15.1,13.2l-16.5,11.3c0-0.3,36-24.5,36-24.5h8.3l19.4,12.7l19.4,12.7
				l-18.8-12.3l16.3-13.2"/>
			<path class="st9" d="M2428.4,1181.1h82.3l-1.5-26.9h-79.3l2.1-31l73.8-0.3l-2.5-29.4h-69.7l1.8-30.8h65l-3.1-30.3h-60.1l1.7-28.1
				h55.6l-2.6-27.9h-51.3l1.6-26.9h47.1c0,0-3.3-33.7-3.3-33.5c0,0.2-42.5,0-42.5,0l2.5-30.2h36L2480,856h-32.4l1.5-24.8h28.5
				l-2.3-23.5h-24.8l1.2-20.2h23"/>
			<polyline class="st10" points="2426.4,1214.3 2453.4,759.1 2470.6,759.1 2515.4,1217 			"/>
			<path class="st8" d="M2433,1093.4c0.6,0.5,13.5,15.3,13.5,15.3l-14.7,13.2c0-0.3,32.1-28.5,32.1-28.5h7.4l17.3,14.8l17.3,14.8
				l-16.7-14.3l14.5-15.3"/>
			<path class="st8" d="M2434.7,1062.7c0.6,0.5,12.5,15.9,12.5,15.9l-13.7,13.7c0-0.4,29.8-29.5,29.8-29.5h6.9l16.1,15.4l16.1,15.4
				l-15.5-14.9l13.5-15.9"/>
			<path class="st8" d="M2437.3,1032.4c0.5,0.5,11.6,15.7,11.6,15.7l-12.6,13.5c0-0.3,27.6-29.1,27.6-29.1h6.4l14.9,15.2l14.9,15.2
				l-14.4-14.7l12.5-15.7"/>
			<path class="st8" d="M2438.1,1004.4c0.5,0.5,10.9,14.5,10.9,14.5l-11.9,12.5c0-0.3,26-26.9,26-26.9h6l14,14l14,14l-13.5-13.6
				l11.7-14.5"/>
			<path class="st8" d="M2432.4,1123.1c0.7,0.5,14.1,16.1,14.1,16.1l-15.4,13.8c0-0.4,33.7-29.9,33.7-29.9h7.8l18.1,15.6l18.1,15.6
				l-17.5-15l15.2-16.1"/>
			<path class="st8" d="M2440.6,976.4c0.5,0.5,9.7,14.5,9.7,14.5l-10.6,12.4c0-0.3,23.1-26.9,23.1-26.9h5.3l12.5,14l12.5,14
				l-12.1-13.5l10.5-14.5"/>
			<path class="st8" d="M2441.7,949.4c0.4,0.5,9,13.9,9,13.9l-9.9,12c0-0.3,21.5-25.9,21.5-25.9h5l11.6,13.5l11.6,13.5l-11.2-13
				l9.7-13.9"/>
			<path class="st8" d="M2443.8,916.2c0.4,0.6,8.1,17.3,8.1,17.3l-8.8,14.9c0-0.4,19.3-32.2,19.3-32.2h4.5l10.4,16.8l10.4,16.8
				l-10-16.2l8.7-17.3"/>
			<path class="st8" d="M2445.3,886c0.3,0.5,7.3,15.6,7.3,15.6l-8,13.4c0-0.3,17.5-29.1,17.5-29.1h4l9.4,15.1l9.4,15.1l-9.1-14.6
				l7.9-15.6"/>
			<path class="st8" d="M2480.5,855.8l-6.8,15.6l7.8,14.6l-8.1-15.1l-8.1-15.1h-3.5c0,0-15,28.7-15,29.1l6.9-13.4
				c0,0-6-15.1-6.3-15.6l30.2-24.6l-27.1-23.5l22.9-19.8l-19.3-28.9"/>
			<polyline class="st8" points="2470.6,759.1 2451.7,787.5 2475.3,807.8 2449.1,831.2 2480,856 			"/>
			<path class="st8" d="M2429.8,1181.1c0.7,0.4,15.4,13.2,15.4,13.2l-16.8,11.3c0-0.3,36.7-24.5,36.7-24.5h8.5l19.8,12.7l19.8,12.7
				l-19.1-12.3l16.6-13.2"/>
			<polygon class="st9" points="2453.4,759.1 2453.4,731.7 2470.9,731.7 2470.9,758.3 			"/>
			<path class="st11" d="M2467,758.5h-9.5c0.8-30.6,0-62.2,0-76.8c0-8.6,4-12.8,4.7-12.8c0.8,0,4.6,7.1,4.6,12.3
				C2466.9,695.7,2466.2,727.9,2467,758.5z"/>
		</g>
		<g>
			<path class="st12" d="M2417.8,1174.8c0.9,0.5,20,13.8,20,13.8l-21.8,11.9c0-0.3,47.5-25.7,47.5-25.7h11l25.6,13.4l25.6,13.4
				l-24.8-12.9l21.5-13.8"/>
			<path class="st13" d="M2415.9,1203h108.6l-2-28.2h-104.6l2.8-32.5l97.3-0.3l-3.3-30.8h-92l2.4-32.3h85.8l-4.1-31.7h-79.3
				l2.2-29.4h73.3l-3.5-29.2h-67.7l2.1-28.2h62.1c0,0-4.3-35.3-4.3-35.1c0,0.2-56.1,0-56.1,0l3.3-31.7h47.5l-2.5-31.4h-42.7l1.9-26
				h37.6l-3-24.6h-32.7l1.6-21.2h30.3"/>
			<polyline class="st14" points="2413.3,1237.8 2448.9,760.8 2471.5,760.8 2530.6,1240.7 			"/>
			<path class="st12" d="M2421.9,1111.2c0.8,0.5,17.8,16,17.8,16l-19.4,13.8c0-0.4,42.4-29.8,42.4-29.8h9.8l22.8,15.5l22.8,15.5
				l-22.1-15l19.2-16"/>
			<path class="st12" d="M2424.2,1079c0.8,0.5,16.5,16.6,16.5,16.6l-18,14.3c0-0.4,39.4-30.9,39.4-30.9h9.1l21.2,16.1l21.2,16.1
				l-20.5-15.6l17.8-16.6"/>
			<path class="st12" d="M2427.5,1047.2c0.7,0.5,15.3,16.4,15.3,16.4l-16.7,14.1c0-0.4,36.4-30.5,36.4-30.5h8.4l19.6,15.9l19.6,15.9
				l-19-15.4l16.4-16.4"/>
			<path class="st12" d="M2428.7,1017.9c0.7,0.5,14.4,15.2,14.4,15.2l-15.7,13.1c0-0.3,34.3-28.2,34.3-28.2h7.9l18.5,14.7l18.5,14.7
				l-17.9-14.2l15.5-15.2"/>
			<path class="st12" d="M2421.1,1142.2c0.9,0.6,18.6,16.8,18.6,16.8l-20.3,14.5c0-0.4,44.4-31.3,44.4-31.3h10.3l23.9,16.3
				l23.9,16.3l-23.1-15.8l20.1-16.8"/>
			<path class="st12" d="M2432,988.5c0.6,0.5,12.8,15.2,12.8,15.2l-14,13c0-0.3,30.5-28.2,30.5-28.2h7.1l16.4,14.7l16.4,14.7
				l-15.9-14.2l13.8-15.2"/>
			<path class="st12" d="M2433.4,960.3c0.6,0.5,11.9,14.6,11.9,14.6l-13,12.5c0-0.3,28.4-27.1,28.4-27.1h6.6l15.3,14.1l15.3,14.1
				l-14.8-13.6l12.8-14.6"/>
			<path class="st12" d="M2436.2,925.4c0.5,0.6,10.7,18.1,10.7,18.1l-11.6,15.6c0-0.4,25.4-33.7,25.4-33.7h5.9l13.7,17.6l13.7,17.6
				l-13.2-17l11.5-18.1"/>
			<path class="st12" d="M2438.1,893.8c0.5,0.5,9.7,16.4,9.7,16.4l-10.6,14.1c0-0.4,23.1-30.5,23.1-30.5h5.3l12.4,15.8l12.4,15.8
				l-12-15.3l10.4-16.4"/>
			<path class="st12" d="M2484.6,862.2l-9,16.4l10.3,15.3l-10.7-15.8l-10.7-15.8h-4.6c0,0-19.8,30.1-19.8,30.5l9.1-14.1
				c0,0-7.9-15.8-8.3-16.4l39.9-25.8l-35.7-24.6l30.2-20.7l-25.5-30.2"/>
			<polyline class="st12" points="2471.5,760.8 2446.7,790.6 2477.8,811.8 2443.2,836.4 2484,862.4 			"/>
			<path class="st12" d="M2417.7,1203c1,0.5,20.3,13.8,20.3,13.8l-22.2,11.9c0-0.3,48.5-25.7,48.5-25.7h11.2l26.1,13.4l26.1,13.4
				l-25.2-12.9l21.9-13.8"/>
			<polygon class="st13" points="2448.9,760.8 2448.9,732.1 2471.9,732.1 2471.9,760 			"/>
			<path class="st15" d="M2466.8,760.2h-12.5c1.1-32.1,0-65.2,0-80.4c0-9,5.2-13.4,6.3-13.4c1,0,6.1,7.5,6.1,12.9
				C2466.6,694.4,2465.7,728.2,2466.8,760.2z"/>
		</g>
	</g>
	<polygon class="st16" points="2080.1,957.6 1759.9,957.6 1788,944.6 2052.7,944.6 	"/>
	<polygon class="st17" points="2052.7,944.6 1788,944.6 1801.1,895.7 2039.7,895.7 	"/>
	<polygon class="st18" points="2039.7,895.7 2061.7,903.2 2080.1,957.6 2052.7,944.6 	"/>
	<polygon class="st18" points="1801.1,895.7 1778.3,903.2 1759.9,957.6 1788,944.6 	"/>
	<g class="st7">
		<g>
			<path class="st19" d="M2218.9,923.8c0.4,0.2,8,7,8,7l-8.8,6c0-0.2,19.1-13,19.1-13h4.4l10.3,6.8l10.3,6.8l-10-6.5l8.6-7"/>
			<path class="st19" d="M2218.1,938.1h43.7l-0.8-14.3h-42.1l1.1-16.4l39.1-0.2l-1.3-15.6h-37l1-16.3h34.5l-1.6-16.1h-31.9l0.9-14.9
				h29.5l-1.4-14.8h-27.2l0.8-14.3h25c0,0-1.7-17.9-1.7-17.8c0,0.1-22.5,0-22.5,0l1.3-16h19.1l-1-15.9h-17.2l0.8-13.2h15.1L2243,740
				h-13.2l0.6-10.7h12.2"/>
			<polyline class="st19" points="2217.1,955.7 2231.4,714.2 2240.5,714.2 2264.3,957.2 			"/>
			<path class="st19" d="M2220.5,891.6c0.3,0.3,7.2,8.1,7.2,8.1l-7.8,7c0-0.2,17.1-15.1,17.1-15.1h3.9l9.2,7.9l9.2,7.9l-8.9-7.6
				l7.7-8.1"/>
			<path class="st19" d="M2221.4,875.3c0.3,0.3,6.6,8.4,6.6,8.4l-7.2,7.2c0-0.2,15.8-15.7,15.8-15.7h3.7l8.5,8.2l8.5,8.2l-8.2-7.9
				l7.2-8.4"/>
			<path class="st19" d="M2222.8,859.2c0.3,0.3,6.1,8.3,6.1,8.3l-6.7,7.1c0-0.2,14.6-15.5,14.6-15.5h3.4l7.9,8l7.9,8l-7.6-7.8
				l6.6-8.3"/>
			<path class="st19" d="M2223.3,844.3c0.3,0.3,5.8,7.7,5.8,7.7l-6.3,6.6c0-0.2,13.8-14.3,13.8-14.3h3.2l7.4,7.4l7.4,7.4l-7.2-7.2
				l6.2-7.7"/>
			<path class="st19" d="M2220.2,907.3c0.4,0.3,7.5,8.5,7.5,8.5l-8.2,7.3c0-0.2,17.9-15.9,17.9-15.9h4.1l9.6,8.3l9.6,8.3l-9.3-8
				l8.1-8.5"/>
			<path class="st19" d="M2224.6,829.5c0.2,0.3,5.2,7.7,5.2,7.7l-5.6,6.6c0-0.2,12.3-14.3,12.3-14.3h2.8l6.6,7.4l6.6,7.4l-6.4-7.2
				l5.5-7.7"/>
			<path class="st19" d="M2225.2,815.2c0.2,0.2,4.8,7.4,4.8,7.4l-5.2,6.4c0-0.2,11.4-13.7,11.4-13.7h2.6l6.2,7.1l6.2,7.1l-6-6.9
				l5.2-7.4"/>
			<path class="st19" d="M2226.3,797.5c0.2,0.3,4.3,9.2,4.3,9.2l-4.7,7.9c0-0.2,10.2-17.1,10.2-17.1h2.4l5.5,8.9l5.5,8.9l-5.3-8.6
				l4.6-9.2"/>
			<path class="st19" d="M2227.1,781.5c0.2,0.3,3.9,8.3,3.9,8.3l-4.2,7.1c0-0.2,9.3-15.4,9.3-15.4h2.1l5,8l5,8l-4.8-7.8l4.2-8.3"/>
			<path class="st19" d="M2245.7,765.5l-3.6,8.3l4.2,7.8l-4.3-8l-4.3-8h-1.8c0,0-8,15.2-8,15.4l3.7-7.1c0,0-3.2-8-3.3-8.3l16-13.1
				l-14.4-12.4l12.1-10.5l-10.2-15.3"/>
			<polyline class="st19" points="2240.5,714.2 2230.5,729.2 2243,740 2229.1,752.4 2245.5,765.6 			"/>
			<path class="st19" d="M2218.8,938.1c0.4,0.2,8.2,7,8.2,7l-8.9,6c0-0.2,19.5-13,19.5-13h4.5l10.5,6.8l10.5,6.8l-10.2-6.5l8.8-7"/>
			<polygon class="st19" points="2231.4,714.2 2231.4,699.6 2240.7,699.6 2240.7,713.7 			"/>
			<path class="st20" d="M2238.6,713.8h-5c0.4-16.3,0-33,0-40.7c0-4.5,2.1-6.8,2.5-6.8c0.4,0,2.4,3.8,2.4,6.5
				C2238.5,680.5,2238.2,697.6,2238.6,713.8z"/>
		</g>
		<g>
			<path class="st21" d="M2212.5,934.8c0.5,0.2,10.6,7.3,10.6,7.3l-11.5,6.3c0-0.2,25.2-13.6,25.2-13.6h5.8l13.6,7.1l13.6,7.1
				l-13.1-6.9l11.4-7.3"/>
			<path class="st21" d="M2211.5,949.7h57.6l-1.1-15h-55.5l1.5-17.2l51.6-0.2l-1.8-16.3h-48.8l1.3-17.1h45.5l-2.2-16.8h-42.1
				l1.2-15.6h38.9l-1.8-15.5H2220l1.1-14.9h33c0,0-2.3-18.7-2.3-18.6c0,0.1-29.8,0-29.8,0l1.7-16.8h25.2l-1.3-16.6H2225l1-13.8h19.9
				l-1.6-13H2227l0.8-11.3h16.1"/>
			<polyline class="st21" points="2210.1,968.2 2229,715.1 2241,715.1 2272.4,969.7 			"/>
			<path class="st21" d="M2214.7,901c0.4,0.3,9.5,8.5,9.5,8.5l-10.3,7.3c0-0.2,22.5-15.8,22.5-15.8h5.2l12.1,8.2l12.1,8.2l-11.7-8
				l10.2-8.5"/>
			<path class="st21" d="M2215.9,883.9c0.4,0.3,8.8,8.8,8.8,8.8l-9.6,7.6c0-0.2,20.9-16.4,20.9-16.4h4.8l11.3,8.5l11.3,8.5
				l-10.9-8.3l9.4-8.8"/>
			<path class="st21" d="M2217.7,867.1c0.4,0.3,8.1,8.7,8.1,8.7l-8.8,7.5c0-0.2,19.3-16.2,19.3-16.2h4.5l10.4,8.4l10.4,8.4
				l-10.1-8.1l8.7-8.7"/>
			<path class="st21" d="M2218.3,851.5c0.4,0.3,7.6,8.1,7.6,8.1l-8.3,6.9c0-0.2,18.2-15,18.2-15h4.2l9.8,7.8l9.8,7.8l-9.5-7.5
				l8.2-8.1"/>
			<path class="st21" d="M2214.2,917.5c0.5,0.3,9.9,8.9,9.9,8.9l-10.8,7.7c0-0.2,23.6-16.6,23.6-16.6h5.4l12.7,8.7l12.7,8.7
				l-12.3-8.4l10.6-8.9"/>
			<path class="st21" d="M2220,835.9c0.3,0.3,6.8,8,6.8,8l-7.4,6.9c0-0.2,16.2-15,16.2-15h3.7l8.7,7.8l8.7,7.8l-8.4-7.5l7.3-8"/>
			<path class="st21" d="M2220.8,820.9c0.3,0.3,6.3,7.7,6.3,7.7l-6.9,6.7c0-0.2,15.1-14.4,15.1-14.4h3.5l8.1,7.5l8.1,7.5l-7.9-7.2
				l6.8-7.7"/>
			<path class="st21" d="M2222.3,802.4c0.3,0.3,5.7,9.6,5.7,9.6l-6.2,8.3c0-0.2,13.5-17.9,13.5-17.9h3.1l7.3,9.3l7.3,9.3l-7-9
				l6.1-9.6"/>
			<path class="st21" d="M2223.3,785.6c0.2,0.3,5.1,8.7,5.1,8.7l-5.6,7.5c0-0.2,12.2-16.2,12.2-16.2h2.8l6.6,8.4l6.6,8.4l-6.4-8.1
				l5.5-8.7"/>
			<path class="st21" d="M2247.9,768.9l-4.8,8.7l5.5,8.1l-5.7-8.4l-5.7-8.4h-2.4c0,0-10.5,16-10.5,16.2l4.8-7.5c0,0-4.2-8.4-4.4-8.7
				l21.2-13.7l-19-13l16-11l-13.5-16"/>
			<polyline class="st21" points="2241,715.1 2227.8,730.9 2244.3,742.1 2226,755.2 2247.6,769 			"/>
			<path class="st21" d="M2212.4,949.7c0.5,0.2,10.8,7.3,10.8,7.3l-11.8,6.3c0-0.2,25.7-13.6,25.7-13.6h5.9l13.9,7.1l13.9,7.1
				l-13.4-6.9l11.6-7.3"/>
			<polygon class="st21" points="2229,715.1 2229,699.8 2241.2,699.8 2241.2,714.6 			"/>
			<path class="st22" d="M2238.5,714.7h-6.6c0.6-17,0-34.6,0-42.7c0-4.8,2.8-7.1,3.3-7.1c0.5,0,3.2,4,3.2,6.8
				C2238.4,679.8,2237.9,697.7,2238.5,714.7z"/>
		</g>
	</g>
	<g class="st7">
		<g>
			<path class="st19" d="M1632.5,923.8c-0.4,0.2-8,7-8,7l8.8,6c0-0.2-19.1-13-19.1-13h-4.4l-10.3,6.8l-10.3,6.8l10-6.5l-8.6-7"/>
			<path class="st19" d="M1633.3,938.1h-43.7l0.8-14.3h42.1l-1.1-16.4l-39.1-0.2l1.3-15.6h37l-1-16.3h-34.5l1.6-16.1h31.9l-0.9-14.9
				h-29.5l1.4-14.8h27.2l-0.8-14.3h-25c0,0,1.7-17.9,1.7-17.8c0,0.1,22.5,0,22.5,0l-1.3-16h-19.1l1-15.9h17.2l-0.8-13.2h-15.1
				l1.2-12.4h13.2l-0.6-10.7h-12.2"/>
			<polyline class="st19" points="1634.4,955.7 1620,714.2 1610.9,714.2 1587.2,957.2 			"/>
			<path class="st19" d="M1630.9,891.6c-0.3,0.3-7.2,8.1-7.2,8.1l7.8,7c0-0.2-17.1-15.1-17.1-15.1h-3.9l-9.2,7.9l-9.2,7.9l8.9-7.6
				l-7.7-8.1"/>
			<path class="st19" d="M1630,875.3c-0.3,0.3-6.6,8.4-6.6,8.4l7.2,7.2c0-0.2-15.8-15.7-15.8-15.7h-3.7l-8.5,8.2l-8.5,8.2l8.2-7.9
				l-7.2-8.4"/>
			<path class="st19" d="M1628.6,859.2c-0.3,0.3-6.1,8.3-6.1,8.3l6.7,7.1c0-0.2-14.6-15.5-14.6-15.5h-3.4l-7.9,8l-7.9,8l7.6-7.8
				l-6.6-8.3"/>
			<path class="st19" d="M1628.1,844.3c-0.3,0.3-5.8,7.7-5.8,7.7l6.3,6.6c0-0.2-13.8-14.3-13.8-14.3h-3.2l-7.4,7.4l-7.4,7.4l7.2-7.2
				l-6.2-7.7"/>
			<path class="st19" d="M1631.2,907.3c-0.4,0.3-7.5,8.5-7.5,8.5l8.2,7.3c0-0.2-17.9-15.9-17.9-15.9h-4.1l-9.6,8.3l-9.6,8.3l9.3-8
				l-8.1-8.5"/>
			<path class="st19" d="M1626.8,829.5c-0.2,0.3-5.2,7.7-5.2,7.7l5.6,6.6c0-0.2-12.3-14.3-12.3-14.3h-2.8l-6.6,7.4l-6.6,7.4l6.4-7.2
				l-5.5-7.7"/>
			<path class="st19" d="M1626.3,815.2c-0.2,0.2-4.8,7.4-4.8,7.4l5.2,6.4c0-0.2-11.4-13.7-11.4-13.7h-2.6l-6.2,7.1l-6.2,7.1l6-6.9
				l-5.2-7.4"/>
			<path class="st19" d="M1625.1,797.5c-0.2,0.3-4.3,9.2-4.3,9.2l4.7,7.9c0-0.2-10.2-17.1-10.2-17.1h-2.4l-5.5,8.9l-5.5,8.9l5.3-8.6
				l-4.6-9.2"/>
			<path class="st19" d="M1624.4,781.5c-0.2,0.3-3.9,8.3-3.9,8.3l4.2,7.1c0-0.2-9.3-15.4-9.3-15.4h-2.1l-5,8l-5,8l4.8-7.8l-4.2-8.3"
				/>
			<path class="st19" d="M1605.7,765.5l3.6,8.3l-4.2,7.8l4.3-8l4.3-8h1.8c0,0,8,15.2,8,15.4l-3.7-7.1c0,0,3.2-8,3.3-8.3l-16-13.1
				l14.4-12.4l-12.1-10.5l10.2-15.3"/>
			<polyline class="st19" points="1610.9,714.2 1620.9,729.2 1608.4,740 1622.3,752.4 1605.9,765.6 			"/>
			<path class="st19" d="M1632.6,938.1c-0.4,0.2-8.2,7-8.2,7l8.9,6c0-0.2-19.5-13-19.5-13h-4.5l-10.5,6.8l-10.5,6.8l10.2-6.5l-8.8-7
				"/>
			<polygon class="st19" points="1620,714.2 1620,699.6 1610.8,699.6 1610.8,713.7 			"/>
			<path class="st20" d="M1612.8,713.8h5c-0.4-16.3,0-33,0-40.7c0-4.5-2.1-6.8-2.5-6.8c-0.4,0-2.4,3.8-2.4,6.5
				C1612.9,680.5,1613.3,697.6,1612.8,713.8z"/>
		</g>
		<g>
			<path class="st21" d="M1638.9,934.8c-0.5,0.2-10.6,7.3-10.6,7.3l11.5,6.3c0-0.2-25.2-13.6-25.2-13.6h-5.8l-13.6,7.1l-13.6,7.1
				l13.1-6.9l-11.4-7.3"/>
			<path class="st21" d="M1640,949.7h-57.6l1.1-15h55.5l-1.5-17.2l-51.6-0.2l1.8-16.3h48.8l-1.3-17.1h-45.5l2.2-16.8h42.1l-1.2-15.6
				h-38.9l1.8-15.5h35.9l-1.1-14.9h-33c0,0,2.3-18.7,2.3-18.6c0,0.1,29.8,0,29.8,0l-1.7-16.8h-25.2l1.3-16.6h22.7l-1-13.8h-19.9
				l1.6-13h17.4l-0.8-11.3h-16.1"/>
			<polyline class="st21" points="1641.3,968.2 1622.4,715.1 1610.4,715.1 1579.1,969.7 			"/>
			<path class="st21" d="M1636.8,901c-0.4,0.3-9.5,8.5-9.5,8.5l10.3,7.3c0-0.2-22.5-15.8-22.5-15.8h-5.2l-12.1,8.2l-12.1,8.2l11.7-8
				l-10.2-8.5"/>
			<path class="st21" d="M1635.6,883.9c-0.4,0.3-8.8,8.8-8.8,8.8l9.6,7.6c0-0.2-20.9-16.4-20.9-16.4h-4.8l-11.3,8.5l-11.3,8.5
				l10.9-8.3l-9.4-8.8"/>
			<path class="st21" d="M1633.8,867.1c-0.4,0.3-8.1,8.7-8.1,8.7l8.8,7.5c0-0.2-19.3-16.2-19.3-16.2h-4.5l-10.4,8.4l-10.4,8.4
				l10.1-8.1l-8.7-8.7"/>
			<path class="st21" d="M1633.1,851.5c-0.4,0.3-7.6,8.1-7.6,8.1l8.3,6.9c0-0.2-18.2-15-18.2-15h-4.2l-9.8,7.8l-9.8,7.8l9.5-7.5
				l-8.2-8.1"/>
			<path class="st21" d="M1637.2,917.5c-0.5,0.3-9.9,8.9-9.9,8.9l10.8,7.7c0-0.2-23.6-16.6-23.6-16.6h-5.4l-12.7,8.7l-12.7,8.7
				l12.3-8.4l-10.6-8.9"/>
			<path class="st21" d="M1631.4,835.9c-0.3,0.3-6.8,8-6.8,8l7.4,6.9c0-0.2-16.2-15-16.2-15h-3.7l-8.7,7.8l-8.7,7.8l8.4-7.5l-7.3-8"
				/>
			<path class="st21" d="M1630.7,820.9c-0.3,0.3-6.3,7.7-6.3,7.7l6.9,6.7c0-0.2-15.1-14.4-15.1-14.4h-3.5l-8.1,7.5l-8.1,7.5l7.9-7.2
				l-6.8-7.7"/>
			<path class="st21" d="M1629.1,802.4c-0.3,0.3-5.7,9.6-5.7,9.6l6.2,8.3c0-0.2-13.5-17.9-13.5-17.9h-3.1l-7.3,9.3l-7.3,9.3l7-9
				l-6.1-9.6"/>
			<path class="st21" d="M1628.1,785.6c-0.2,0.3-5.1,8.7-5.1,8.7l5.6,7.5c0-0.2-12.2-16.2-12.2-16.2h-2.8l-6.6,8.4l-6.6,8.4l6.4-8.1
				l-5.5-8.7"/>
			<path class="st21" d="M1603.5,768.9l4.8,8.7l-5.5,8.1l5.7-8.4l5.7-8.4h2.4c0,0,10.5,16,10.5,16.2l-4.8-7.5c0,0,4.2-8.4,4.4-8.7
				l-21.2-13.7l19-13l-16-11l13.5-16"/>
			<polyline class="st21" points="1610.4,715.1 1623.6,730.9 1607.1,742.1 1625.4,755.2 1603.8,769 			"/>
			<path class="st21" d="M1639,949.7c-0.5,0.2-10.8,7.3-10.8,7.3l11.8,6.3c0-0.2-25.7-13.6-25.7-13.6h-5.9l-13.9,7.1l-13.9,7.1
				l13.4-6.9l-11.6-7.3"/>
			<polygon class="st21" points="1622.4,715.1 1622.4,699.8 1610.2,699.8 1610.2,714.6 			"/>
			<path class="st22" d="M1612.9,714.7h6.6c-0.6-17,0-34.6,0-42.7c0-4.8-2.8-7.1-3.3-7.1c-0.5,0-3.2,4-3.2,6.8
				C1613,679.8,1613.5,697.7,1612.9,714.7z"/>
		</g>
	</g>
</g>
</svg>
