<?xml version="1.0" encoding="utf-8"?>
<!-- Generator: Adobe Illustrator 25.2.0, SVG Export Plug-In . SVG Version: 6.00 Build 0)  -->
<svg version="1.1" id="Layer_1" xmlns="http://www.w3.org/2000/svg" xmlns:xlink="http://www.w3.org/1999/xlink" x="0px" y="0px"
	 viewBox="0 0 2560 1440" style="enable-background:new 0 0 2560 1440;" xml:space="preserve">
<style type="text/css">
	.st0{fill:#672718;}
	.st1{fill:#3C150E;}
	.st2{fill:#420909;}
	.st3{fill:#8E1919;}
	.st4{fill:#C61414;}
</style>
<rect class="st0" width="2560" height="1447.5"/>
<path class="st1" d="M2560,809.2l-435.4,17.1c0,0-135.1,20.3-142.4,18.7c-7.4-1.6-248-45.2-248-45.2l-338.9,32.7l-385.6-48.3
	l-530.5,45.2l-299.6-45.2L0,826.4v621.1h2560V809.2z"/>
<path class="st2" d="M2560,1059l-344.1-9.7l-298.3,50.5c0,0-401.7-35.9-406.8-40.8c-5.1-4.8-203.4,19.4-249.2,15.5
	c-45.8-3.9-301.7-34-339-39.3c-37.3-5.3-364.4,37.4-378,42.2c-13.6,4.8-376.3-20.4-406.8-22.3S0,1077.5,0,1077.5v370h2560V1059z"/>
<path class="st3" d="M2560,1447.5v-164.4l-201.8-11.4l-303.4,20.7l-330.5-29.3l-455.9,25.7c0,0-276.3-20.7-283.1-21.4
	s-462.7,7.9-467.8,8.6c-5.1,0.7-147.5-12.9-147.5-12.9l-186.4,14.3L0,1263.1v184.4H2560"/>
<path class="st4" d="M2560,1376.6l-240.7,21.4l-403.4-21.4l-317,21.4c0,0-423.7-25.7-437.3-25c-13.6,0.7-428.8,25-428.8,25
	l-349.1-46.4L0,1383.8v63.7h2560V1376.6z"/>
</svg>
