<?xml version="1.0" encoding="utf-8"?>
<!-- Generator: Adobe Illustrator 25.2.0, SVG Export Plug-In . SVG Version: 6.00 Build 0)  -->
<svg version="1.1" id="Layer_1" xmlns="http://www.w3.org/2000/svg" xmlns:xlink="http://www.w3.org/1999/xlink" x="0px" y="0px"
	 viewBox="0 0 2560 1440" style="enable-background:new 0 0 2560 1440;" xml:space="preserve">
<style type="text/css">
	.st0{fill:#672718;}
	.st1{fill:#9E3924;}
	.st2{fill:#C5462B;}
	.st3{fill:#DC5132;}
	.st4{fill:#EF563A;}
</style>
<rect class="st0" width="2560" height="1447.5"/>
<path class="st1" d="M0,1005.5l435.5-27c0,0,135.1-31.9,142.4-29.5s248,71.2,248,71.2l338.9-51.6l385.6,76.1l530.5-71.2l299.6,71.2
	l179.5-66.3V0H0V1005.5z"/>
<path class="st2" d="M0,678.5l344.1,17l298.3-88.1c0,0,401.7,62.7,406.8,71.2c5.1,8.5,203.4-33.9,249.2-27.1s301.7,59.3,339,68.6
	s364.4-65.2,378-73.7c13.6-8.5,376.3,35.6,406.8,39s137.9-39,137.9-39V0H0V678.5z"/>
<path class="st3" d="M0,0v390.3l201.8,27.1l303.4-49.1l330.5,69.5l455.9-61c0,0,276.3,49.1,283.1,50.9s462.7-18.6,467.8-20.3
	s147.5,30.5,147.5,30.5l186.4-33.9l183.7,33.9V0H0"/>
<path class="st4" d="M0,168.3l240.7-50.8l403.4,50.8l317-50.8c0,0,423.7,61,437.3,59.3s428.8-59.3,428.8-59.3l349.1,110.2
	l383.7-76.4V0H0V168.3z"/>
</svg>
