<?xml version="1.0" encoding="utf-8"?>
<!-- Generator: Adobe Illustrator 24.0.1, SVG Export Plug-In . SVG Version: 6.00 Build 0)  -->
<svg version="1.1" id="Layer_1" xmlns="http://www.w3.org/2000/svg" xmlns:xlink="http://www.w3.org/1999/xlink" x="0px" y="0px"
	 viewBox="0 0 2000 2000" style="enable-background:new 0 0 2000 2000;" xml:space="preserve">
<style type="text/css">
	.st0{display:none;}
	.st1{fill:none;stroke:#FFFFFF;stroke-width:35;stroke-miterlimit:10;}
</style>
<path class="st0" d="M1552.5,37.2H436C215.8,37.2,37.2,215.8,37.2,436v1116.5c0,220.2,178.6,398.7,398.7,398.7h1116.5
	c220.3,0,398.7-178.6,398.7-398.7V436C1951.2,215.8,1772.7,37.2,1552.5,37.2z M675.2,1552.5H436V675.2h239.2V1552.5z M555.6,574.1
	c-77,0-139.6-63-139.6-140.7s62.5-140.7,139.6-140.7s139.6,63,139.6,140.7S632.7,574.1,555.6,574.1z M1632.2,1552.5H1393v-446.9
	c0-268.6-319-248.3-319,0v446.9H834.7V675.2H1074V816c111.3-206.2,558.2-221.5,558.2,197.5V1552.5z"/>
<g>
	<path class="st1" d="M1921.4,534.4c-21.9-83.1-87.4-148.6-170.5-171.6c-149.7-40.4-750.9-40.4-750.9-40.4s-601.1,0-752,40.4
		C165,384.7,100.5,450.2,77.5,534.4C38.2,685.2,38.2,1000,38.2,1000s0,314.8,40.4,465.6c21.9,83.1,87.4,148.6,170.5,171.6
		c149.7,40.4,750.9,40.4,750.9,40.4s601.1,0,752-40.4c83.1-21.9,147.6-87.4,170.5-171.6c39.3-150.8,39.3-465.6,39.3-465.6
		S1961.8,685.2,1921.4,534.4z"/>
	<polygon class="st1" points="803.3,1286.4 803.3,713.6 1306,1000 	"/>
</g>
</svg>
