<?xml version="1.0" encoding="utf-8"?>
<!-- Generator: Adobe Illustrator 24.0.1, SVG Export Plug-In . SVG Version: 6.00 Build 0)  -->
<svg version="1.1" id="Layer_1" xmlns="http://www.w3.org/2000/svg" xmlns:xlink="http://www.w3.org/1999/xlink" x="0px" y="0px"
	 viewBox="0 0 2000 2000" style="enable-background:new 0 0 2000 2000;" xml:space="preserve">
<style type="text/css">
	.st0{fill:none;stroke:#FFFFFF;stroke-width:10;stroke-miterlimit:10;}
	.st1{display:none;}
</style>
<g>
	<path class="st0" d="M993.6,92.9c-530.5,0-960.8,430.1-960.8,960.7c0,424.5,275.3,784.6,657,911.7c48,8.9,65.6-20.8,65.6-46.2
		c0-22.9-0.9-98.6-1.3-178.9c-267.3,58.1-323.7-113.4-323.7-113.4c-43.7-111-106.7-140.6-106.7-140.6c-87.2-59.6,6.6-58.4,6.6-58.4
		c96.5,6.8,147.3,99,147.3,99c85.7,146.9,224.8,104.4,279.6,79.9c8.6-62.1,33.5-104.5,61-128.5c-213.4-24.3-437.7-106.7-437.7-474.8
		c0-104.9,37.5-190.6,99-257.9c-10-24.2-42.9-121.9,9.3-254.3c0,0,80.7-25.8,264.3,98.5c76.6-21.3,158.8-32,240.5-32.3
		c81.7,0.4,163.9,11,240.7,32.3c183.4-124.3,263.9-98.5,263.9-98.5c52.3,132.3,19.4,230,9.4,254.3c61.6,67.3,98.9,153,98.9,257.9
		c0,369-224.8,450.3-438.7,474c34.5,29.8,65.2,88.3,65.2,177.9c0,128.6-1.1,232-1.1,263.7c0,25.6,17.3,55.5,66,46.1
		c381.5-127.2,656.5-487.2,656.5-911.5C1954.4,523.1,1524.2,92.9,993.6,92.9z"/>
	<path class="st0" d="M396.7,1472.4c-2.1,4.8-9.6,6.2-16.5,2.9c-7-3.1-10.9-9.7-8.6-14.4c2.1-4.9,9.6-6.3,16.5-3
		C395.2,1461,399.1,1467.6,396.7,1472.4L396.7,1472.4z"/>
	<path class="st0" d="M435.7,1515.8c-4.6,4.2-13.5,2.3-19.6-4.4c-6.3-6.7-7.5-15.7-2.8-20c4.7-4.2,13.4-2.3,19.7,4.4
		C439.2,1502.6,440.5,1511.5,435.7,1515.8L435.7,1515.8z"/>
	<path class="st0" d="M473.5,1571.1c-5.9,4.1-15.5,0.3-21.5-8.3c-5.9-8.6-5.9-18.8,0.1-22.9c6-4.1,15.4-0.4,21.5,8.1
		C479.6,1556.7,479.6,1566.9,473.5,1571.1L473.5,1571.1z"/>
	<path class="st0" d="M525.4,1624.6c-5.3,5.8-16.5,4.2-24.7-3.7c-8.4-7.7-10.7-18.7-5.5-24.6c5.3-5.8,16.6-4.2,24.9,3.7
		C528.5,1607.8,531,1618.8,525.4,1624.6L525.4,1624.6z"/>
	<path class="st0" d="M597,1655.6c-2.3,7.5-13.1,10.9-24,7.7c-10.9-3.3-18-12.1-15.8-19.7c2.3-7.6,13.1-11.1,24.1-7.7
		C592.2,1639.2,599.3,1647.9,597,1655.6L597,1655.6z"/>
	<path class="st0" d="M675.7,1661.3c0.3,7.9-9,14.5-20.4,14.6c-11.5,0.3-20.8-6.2-20.9-13.9c0-8,9-14.5,20.5-14.7
		C666.3,1647.1,675.7,1653.5,675.7,1661.3L675.7,1661.3z"/>
	<path class="st0" d="M748.8,1648.9c1.4,7.7-6.6,15.7-17.9,17.8c-11.2,2.1-21.5-2.7-22.9-10.4c-1.4-7.9,6.7-15.9,17.8-17.9
		C737.2,1636.4,747.4,1641.1,748.8,1648.9L748.8,1648.9z"/>
</g>
<path class="st1" d="M1552.5,37.2H436C215.8,37.2,37.2,215.8,37.2,436v1116.5c0,220.2,178.6,398.7,398.7,398.7h1116.5
	c220.3,0,398.7-178.6,398.7-398.7V436C1951.2,215.8,1772.7,37.2,1552.5,37.2z M675.2,1552.5H436V675.2h239.2V1552.5z M555.6,574.1
	c-77,0-139.6-63-139.6-140.7s62.5-140.7,139.6-140.7s139.6,63,139.6,140.7S632.7,574.1,555.6,574.1z M1632.2,1552.5H1393v-446.9
	c0-268.6-319-248.3-319,0v446.9H834.7V675.2H1074V816c111.3-206.2,558.2-221.5,558.2,197.5V1552.5z"/>
</svg>
