<?xml version="1.0" encoding="utf-8"?>
<!-- Generator: Adobe Illustrator 24.0.1, SVG Export Plug-In . SVG Version: 6.00 Build 0)  -->
<svg version="1.1" id="Layer_1" xmlns="http://www.w3.org/2000/svg" xmlns:xlink="http://www.w3.org/1999/xlink" x="0px" y="0px"
	 viewBox="0 0 2000 2000" style="enable-background:new 0 0 2000 2000;" xml:space="preserve">
<style type="text/css">
	.st0{display:none;}
	.st1{fill:none;stroke:#FFFFFF;stroke-width:10;stroke-miterlimit:10;}
</style>
<path class="st0" d="M1552.5,37.2H436C215.8,37.2,37.2,215.8,37.2,436v1116.5c0,220.2,178.6,398.7,398.7,398.7h1116.5
	c220.3,0,398.7-178.6,398.7-398.7V436C1951.2,215.8,1772.7,37.2,1552.5,37.2z M675.2,1552.5H436V675.2h239.2V1552.5z M555.6,574.1
	c-77,0-139.6-63-139.6-140.7s62.5-140.7,139.6-140.7s139.6,63,139.6,140.7S632.7,574.1,555.6,574.1z M1632.2,1552.5H1393v-446.9
	c0-268.6-319-248.3-319,0v446.9H834.7V675.2H1074V816c111.3-206.2,558.2-221.5,558.2,197.5V1552.5z"/>
<g>
	<path class="st1" d="M838.7,473.6c62-64.6,148.4-104.7,243.9-104.7c127,0,237.8,70.8,296.8,175.9c51.3-22.9,108-35.7,167.7-35.7
		c229,0,414.7,187.3,414.7,418.3c0,231.1-185.7,418.4-414.7,418.4c-28,0-55.3-2.8-81.7-8.1c-52,92.7-151,155.3-264.6,155.3
		c-47.6,0-92.6-11-132.6-30.5c-52.7,123.9-175.4,210.8-318.4,210.8c-148.9,0-275.9-94.2-324.6-226.4c-21.3,4.5-43.4,6.9-66,6.9
		c-177.3,0-321.1-145.2-321.1-324.4c0-120.1,64.6-224.9,160.6-281C179,802.8,168,752.6,168,699.9c0-206.1,167.3-373.1,373.6-373.1
		C662.8,326.8,770.4,384.4,838.7,473.6"/>
	<path class="st1" d="M316.8,1025c-1.2,3.2,0.4,3.8,0.8,4.4c3.6,2.6,7.3,4.5,11,6.6c19.6,10.4,38.1,13.5,57.5,13.5
		c39.5,0,64-21,64-54.8V994c0-31.2-27.6-42.6-53.6-50.8l-3.4-1.1c-19.6-6.4-36.4-11.8-36.4-24.7v-0.7c0-11,9.9-19.1,25.2-19.1
		c17,0,37.2,5.6,50.1,12.8c0,0,3.8,2.5,5.2-1.2c0.8-2,7.3-19.7,8-21.6c0.7-2.1-0.6-3.6-1.9-4.4c-14.8-9-35.3-15.2-56.5-15.2l-3.9,0
		c-36.1,0-61.3,21.8-61.3,53.1v0.7c0,33,27.8,43.7,53.9,51.1l4.2,1.3c19,5.8,35.3,10.9,35.3,24.2v0.7c0,12.2-10.6,21.3-27.8,21.3
		c-6.7,0-27.9-0.1-50.8-14.6c-2.8-1.6-4.4-2.8-6.5-4.1c-1.1-0.7-3.9-1.9-5.2,1.8L316.8,1025L316.8,1025z"/>
	<path class="st1" d="M894.5,1025c-1.2,3.2,0.4,3.8,0.8,4.4c3.6,2.6,7.3,4.5,11,6.6c19.6,10.4,38.1,13.5,57.5,13.5
		c39.5,0,64-21,64-54.8V994c0-31.2-27.6-42.6-53.6-50.8l-3.4-1.1c-19.6-6.4-36.4-11.8-36.4-24.7v-0.7c0-11,9.9-19.1,25.2-19.1
		c17,0,37.2,5.6,50.1,12.8c0,0,3.8,2.5,5.2-1.2c0.8-2,7.3-19.7,8-21.6c0.7-2.1-0.6-3.6-1.9-4.4c-14.8-9-35.3-15.2-56.5-15.2l-3.9,0
		c-36.1,0-61.3,21.8-61.3,53.1v0.7c0,33,27.8,43.7,53.9,51.1l4.2,1.3c19,5.8,35.4,10.9,35.4,24.2v0.7c0,12.2-10.7,21.3-27.8,21.3
		c-6.7,0-27.9-0.1-50.8-14.6c-2.8-1.6-4.4-2.7-6.5-4.1c-0.7-0.5-4.1-1.8-5.2,1.8L894.5,1025L894.5,1025z"/>
	<path class="st1" d="M1288.8,958.8c0,19.1-3.6,34.1-10.6,44.8c-6.9,10.5-17.4,15.6-32.1,15.6c-14.7,0-25.1-5.1-31.9-15.6
		c-6.9-10.6-10.4-25.7-10.4-44.8c0-19.1,3.5-34.1,10.4-44.6c6.8-10.4,17.3-15.5,31.9-15.5c14.6,0,25.1,5.1,32.1,15.5
		C1285.3,924.7,1288.8,939.8,1288.8,958.8 M1321.8,923.4c-3.2-10.9-8.3-20.6-15-28.6c-6.7-8.1-15.2-14.5-25.3-19.2
		c-10.1-4.7-21.9-7.1-35.3-7.1c-13.4,0-25.3,2.4-35.3,7.1c-10.1,4.7-18.6,11.2-25.3,19.2c-6.7,8.1-11.7,17.7-15,28.6
		c-3.2,10.9-4.8,22.8-4.8,35.4s1.6,24.6,4.8,35.4c3.3,10.9,8.3,20.6,15,28.6c6.7,8.1,15.2,14.5,25.3,19.1
		c10.1,4.6,21.9,6.9,35.3,6.9c13.3,0,25.2-2.3,35.3-6.9c10.1-4.6,18.6-11,25.3-19.1c6.7-8,11.8-17.7,15-28.6
		c3.2-10.9,4.9-22.8,4.9-35.4S1325,934.3,1321.8,923.4"/>
	<path class="st1" d="M1592.2,1014.2c-1.1-3.2-4.2-2-4.2-2c-4.8,1.8-9.9,3.5-15.3,4.4c-5.5,0.8-11.6,1.3-18.1,1.3
		c-15.9,0-28.6-4.7-37.7-14.1c-9.1-9.4-14.2-24.5-14.1-45c0.1-18.7,4.5-32.7,12.6-43.4c8-10.6,20.3-16.1,36.6-16.1
		c13.6,0,23.9,1.6,34.8,5c0,0,2.6,1.1,3.8-2.3c2.9-8,5-13.7,8.1-22.5c0.9-2.5-1.3-3.6-2-3.9c-4.3-1.7-14.4-4.4-22-5.5
		c-7.1-1.1-15.5-1.7-24.7-1.7c-13.8,0-26.2,2.4-36.7,7.1c-10.5,4.7-19.5,11.2-26.5,19.2c-7.1,8.1-12.4,17.7-16,28.6
		c-3.6,10.9-5.4,22.8-5.4,35.5c0,27.3,7.4,49.4,21.9,65.6c14.6,16.2,36.5,24.5,65,24.5c16.9,0,34.2-3.4,46.6-8.3
		c0,0,2.4-1.2,1.3-3.9L1592.2,1014.2L1592.2,1014.2z"/>
	<path class="st1" d="M1649.9,940.5c1.6-10.6,4.5-19.4,9-26.3c6.8-10.4,17.2-16.2,31.9-16.2c14.6,0,24.3,5.8,31.2,16.2
		c4.6,6.9,6.6,16.1,7.4,26.3H1649.9L1649.9,940.5z M1760.8,917.2c-2.8-10.5-9.7-21.2-14.3-26.1c-7.2-7.7-14.2-13.1-21.2-16.1
		c-9.1-3.9-20-6.5-32-6.5c-13.9,0-26.6,2.3-36.8,7.2c-10.3,4.8-18.9,11.4-25.7,19.6c-6.8,8.2-11.9,17.9-15.1,28.9
		c-3.3,11-4.9,23-4.9,35.6c0,12.9,1.7,24.8,5.1,35.6c3.4,10.9,8.8,20.4,16.2,28.3c7.3,8,16.7,14.2,28,18.6
		c11.2,4.3,24.8,6.6,40.5,6.5c32.2-0.1,49.2-7.3,56.1-11.2c1.2-0.7,2.4-1.9,0.9-5.3l-7.3-20.4c-1.1-3-4.2-1.9-4.2-1.9
		c-8,3-19.3,8.3-45.8,8.2c-17.3,0-30.1-5.1-38.1-13.1c-8.2-8.2-12.3-20.2-13-37.1l111.5,0.1c0,0,2.9-0.1,3.2-2.9
		C1764.2,964,1767.9,942.3,1760.8,917.2L1760.8,917.2z"/>
	<path class="st1" d="M756.9,940.5c1.6-10.6,4.5-19.4,9-26.3c6.8-10.4,17.2-16.2,31.9-16.2c14.6,0,24.3,5.8,31.3,16.2
		c4.6,6.9,6.6,16.1,7.4,26.3H756.9L756.9,940.5z M867.8,917.2c-2.8-10.5-9.7-21.2-14.2-26.1c-7.2-7.7-14.2-13.1-21.2-16.1
		c-9.1-3.9-20-6.5-32-6.5c-13.9,0-26.6,2.3-36.8,7.2c-10.3,4.8-18.9,11.4-25.7,19.6c-6.8,8.2-11.9,17.9-15.1,28.9
		c-3.2,11-4.9,23-4.9,35.6c0,12.9,1.7,24.8,5.1,35.6c3.4,10.9,8.8,20.4,16.2,28.3c7.3,8,16.7,14.2,28,18.6
		c11.2,4.3,24.8,6.6,40.5,6.5c32.2-0.1,49.2-7.3,56.1-11.2c1.2-0.7,2.4-1.9,0.9-5.3l-7.3-20.4c-1.1-3-4.2-1.9-4.2-1.9
		c-8,3-19.3,8.3-45.8,8.2c-17.3,0-30.1-5.1-38.1-13.1c-8.2-8.2-12.3-20.2-13-37.1l111.5,0.1c0,0,2.9-0.1,3.2-2.9
		C871.2,964,875,942.3,867.8,917.2L867.8,917.2z"/>
	<path class="st1" d="M515.9,1013.5c-4.4-3.5-5-4.4-6.4-6.6c-2.2-3.4-3.3-8.3-3.3-14.5c0-9.8,3.2-16.9,9.9-21.6
		c-0.1,0,9.6-8.4,32.3-8.1c16,0.2,30.3,2.6,30.3,2.6v50.7h0c0,0-14.2,3-30.1,4C525.9,1021.4,515.8,1013.5,515.9,1013.5 M560.3,935.2
		c-4.5-0.3-10.4-0.5-17.4-0.5c-9.6,0-18.8,1.2-27.5,3.5c-8.7,2.3-16.6,6-23.3,10.8c-6.8,4.9-12.2,11-16.2,18.4
		c-3.9,7.3-5.9,16-5.9,25.7c0,9.9,1.7,18.4,5.1,25.5c3.4,7,8.3,12.9,14.6,17.4c6.2,4.5,13.8,7.8,22.7,9.8c8.7,2,18.7,3,29.5,3
		c11.4,0,22.8-0.9,33.9-2.8c10.9-1.9,24.4-4.6,28.1-5.4c3.7-0.9,7.8-2,7.8-2c2.8-0.7,2.5-3.6,2.5-3.6l-0.1-102
		c0-22.4-6-38.9-17.7-49.2c-11.7-10.2-28.9-15.4-51.2-15.4c-8.4,0-21.8,1.2-29.9,2.8c0,0-24.4,4.7-34.4,12.6c0,0-2.2,1.4-1,4.4
		l7.9,21.2c1,2.7,3.6,1.8,3.6,1.8s0.8-0.3,1.8-0.9c21.5-11.7,48.6-11.3,48.6-11.3c12.1,0,21.3,2.4,27.6,7.2
		c6.1,4.7,9.2,11.7,9.2,26.6v4.7C569.1,936,560.3,935.2,560.3,935.2"/>
	<path class="st1" d="M1459.6,877.7c0.8-2.5-0.9-3.7-1.7-4c-1.9-0.7-11.4-2.7-18.7-3.2c-14-0.8-21.8,1.5-28.7,4.6
		c-6.9,3.1-14.6,8.2-18.9,13.9v-13.6c0-1.9-1.3-3.4-3.2-3.4h-28.6c-1.9,0-3.2,1.5-3.2,3.4v166.3c0,1.9,1.5,3.4,3.4,3.4h29.3
		c1.9,0,3.4-1.5,3.4-3.4v-83.1c0-11.2,1.2-22.3,3.7-29.3c2.4-6.9,5.7-12.4,9.8-16.4c4.1-3.9,8.7-6.7,13.8-8.3
		c5.2-1.6,10.9-2.1,15-2.1c5.8,0,12.2,1.5,12.2,1.5c2.1,0.2,3.3-1.1,4.1-3C1453.1,896,1458.5,880.8,1459.6,877.7"/>
	<path class="st1" d="M1184.6,800.7c-3.6-1.1-6.8-1.8-11-2.6c-4.3-0.8-9.4-1.2-15.2-1.2c-20.2,0-36.1,5.7-47.2,16.9
		c-11.1,11.2-18.6,28.2-22.4,50.6l-1.4,7.5h-25.3c0,0-3.1-0.1-3.7,3.2l-4.1,23.2c-0.3,2.2,0.7,3.6,3.6,3.6h24.6l-25,139.5
		c-1.9,11.2-4.2,20.5-6.7,27.5c-2.4,6.9-4.8,12.1-7.8,15.9c-2.8,3.6-5.5,6.3-10.2,7.9c-3.8,1.3-8.3,1.9-13.1,1.9
		c-2.7,0-6.3-0.4-8.9-1c-2.6-0.5-4-1.1-6-1.9c0,0-2.9-1.1-4,1.8c-0.9,2.4-7.5,20.4-8.3,22.7c-0.8,2.2,0.3,3.9,1.7,4.5
		c3.3,1.2,5.7,1.9,10.2,3c6.2,1.5,11.4,1.5,16.3,1.5c10.2,0,19.6-1.5,27.4-4.2c7.8-2.8,14.6-7.7,20.6-14.4
		c6.5-7.2,10.6-14.7,14.5-25c3.9-10.1,7.2-22.7,9.8-37.4l25.1-142.1h36.7c0,0,3.1,0.1,3.7-3.3l4.2-23.2c0.3-2.2-0.7-3.6-3.6-3.6
		h-35.7c0.2-0.8,1.8-13.3,5.9-25.2c1.8-5,5-9.1,7.8-11.9c2.7-2.7,5.9-4.7,9.3-5.8c3.5-1.2,7.6-1.7,12-1.7c3.3,0,6.7,0.4,9.2,0.9
		c3.5,0.7,4.8,1.1,5.7,1.4c3.6,1.1,4.1,0,4.9-1.7l8.5-23.4C1187.5,802,1185.4,801,1184.6,800.7"/>
	<path class="st1" d="M686.5,1041.8c0,1.9-1.3,3.4-3.2,3.4h-29.6c-1.9,0-3.2-1.5-3.2-3.4v-238c0-1.9,1.3-3.4,3.2-3.4h29.6
		c1.9,0,3.2,1.5,3.2,3.4V1041.8L686.5,1041.8z"/>
</g>
</svg>
